<?xml version="1.0" encoding="utf-8"?>
<!-- Generator: Adobe Illustrator 15.0.1, SVG Export Plug-In . SVG Version: 6.00 Build 0)  -->
<!DOCTYPE svg PUBLIC "-//W3C//DTD SVG 1.1//EN" "http://www.w3.org/Graphics/SVG/1.1/DTD/svg11.dtd">
<svg version="1.1" id="Layer_1" xmlns="http://www.w3.org/2000/svg" xmlns:xlink="http://www.w3.org/1999/xlink" x="0px" y="0px"
	 width="467px" height="126px" viewBox="123.14 389.445 467 126" enable-background="new 123.14 389.445 467 126"
	 xml:space="preserve">
<g>
	<path fill="#9CC6D1" d="M140.163,412.954h6.713v6.702h-6.713V412.954z M140.163,420.852h6.713v6.701h-6.713V420.852z
		 M140.163,428.75h6.713v6.701h-6.713V428.75z M140.163,436.767h6.713v6.701h-6.713V436.767z M140.163,444.666h6.713v6.701h-6.713
		V444.666z M148.074,405.056h6.713v6.701h-6.713V405.056z M148.074,412.954h6.713v6.702h-6.713V412.954z M148.074,420.852h6.713
		v6.701h-6.713V420.852z M148.074,428.75h6.713v6.701h-6.713V428.75z M148.074,436.767h6.713v6.701h-6.713V436.767z
		 M148.074,444.666h6.713v6.701h-6.713V444.666z M148.074,452.562h6.713v6.701h-6.713V452.562z M155.985,405.056h6.712v6.701h-6.712
		V405.056z M155.985,452.562h6.712v6.701h-6.712V452.562z M163.896,405.056h6.713v6.701h-6.713V405.056z M163.896,452.562h6.713
		v6.701h-6.713V452.562z M171.928,405.056h6.713v6.701h-6.713V405.056z M171.928,452.562h6.713v6.701h-6.713V452.562z
		 M179.839,405.056h6.712v6.701h-6.712V405.056z M179.839,412.954h6.712v6.702h-6.712V412.954z M179.839,444.666h6.712v6.701h-6.712
		V444.666z M179.839,452.562h6.712v6.701h-6.712V452.562z M187.75,412.954h6.713v6.702h-6.713V412.954z M187.75,444.666h6.713v6.701
		h-6.713V444.666z"/>
	<path fill="#9CC6D1" d="M202.493,420.852h6.713v6.701h-6.713V420.852z M202.493,428.75h6.713v6.701h-6.713V428.75z
		 M202.493,436.767h6.713v6.701h-6.713V436.767z M202.493,444.666h6.713v6.701h-6.713V444.666z M202.493,452.562h6.713v6.701h-6.713
		V452.562z M210.404,412.954h6.713v6.702h-6.713V412.954z M210.404,420.852h6.713v6.701h-6.713V420.852z M210.404,428.75h6.713
		v6.701h-6.713V428.75z M210.404,436.767h6.713v6.701h-6.713V436.767z M210.404,444.666h6.713v6.701h-6.713V444.666z
		 M210.404,452.562h6.713v6.701h-6.713V452.562z M218.316,405.056h6.712v6.701h-6.712V405.056z M218.316,412.954h6.712v6.702h-6.712
		V412.954z M218.316,436.767h6.712v6.701h-6.712V436.767z M226.227,405.056h6.713v6.701h-6.713V405.056z M226.227,436.767h6.713
		v6.701h-6.713V436.767z M234.258,405.056h6.713v6.701h-6.713V405.056z M234.258,412.954h6.713v6.702h-6.713V412.954z
		 M234.258,436.767h6.713v6.701h-6.713V436.767z M242.17,412.954h6.712v6.702h-6.712V412.954z M242.17,420.852h6.712v6.701h-6.712
		V420.852z M242.17,428.75h6.712v6.701h-6.712V428.75z M242.17,436.767h6.712v6.701h-6.712V436.767z M242.17,444.666h6.712v6.701
		h-6.712V444.666z M242.17,452.562h6.712v6.701h-6.712V452.562z M250.081,420.852h6.713v6.701h-6.713V420.852z M250.081,428.75
		h6.713v6.701h-6.713V428.75z M250.081,436.767h6.713v6.701h-6.713V436.767z M250.081,444.666h6.713v6.701h-6.713V444.666z
		 M250.081,452.562h6.713v6.701h-6.713V452.562z"/>
	<path fill="#9CC6D1" d="M264.824,405.056h6.713v6.701h-6.713V405.056z M264.824,412.954h6.713v6.702h-6.713V412.954z
		 M264.824,420.852h6.713v6.701h-6.713V420.852z M264.824,428.75h6.713v6.701h-6.713V428.75z M264.824,436.767h6.713v6.701h-6.713
		V436.767z M264.824,444.666h6.713v6.701h-6.713V444.666z M264.824,452.562h6.713v6.701h-6.713V452.562z M272.735,405.056h6.713
		v6.701h-6.713V405.056z M272.735,412.954h6.713v6.702h-6.713V412.954z M272.735,420.852h6.713v6.701h-6.713V420.852z
		 M272.735,428.75h6.713v6.701h-6.713V428.75z M272.735,436.767h6.713v6.701h-6.713V436.767z M272.735,444.666h6.713v6.701h-6.713
		V444.666z M272.735,452.562h6.713v6.701h-6.713V452.562z M280.646,452.562h6.712v6.701h-6.712V452.562z M288.558,452.562h6.713
		v6.701h-6.713V452.562z M296.589,452.562h6.713v6.701h-6.713V452.562z M304.5,452.562h6.713v6.701H304.5V452.562z M312.412,452.562
		h6.713v6.701h-6.713V452.562z"/>
	<path fill="#9CC6D1" d="M327.154,412.954h6.713v6.702h-6.713V412.954z M327.154,420.852h6.713v6.701h-6.713V420.852z
		 M327.154,428.75h6.713v6.701h-6.713V428.75z M327.154,436.767h6.713v6.701h-6.713V436.767z M327.154,444.666h6.713v6.701h-6.713
		V444.666z M335.065,405.056h6.713v6.701h-6.713V405.056z M335.065,412.954h6.713v6.702h-6.713V412.954z M335.065,420.852h6.713
		v6.701h-6.713V420.852z M335.065,428.75h6.713v6.701h-6.713V428.75z M335.065,436.767h6.713v6.701h-6.713V436.767z
		 M335.065,444.666h6.713v6.701h-6.713V444.666z M335.065,452.562h6.713v6.701h-6.713V452.562z M342.977,405.056h6.713v6.701h-6.713
		V405.056z M342.977,452.562h6.713v6.701h-6.713V452.562z M350.889,405.056h6.712v6.701h-6.712V405.056z M350.889,452.562h6.712
		v6.701h-6.712V452.562z M358.919,405.056h6.713v6.701h-6.713V405.056z M358.919,452.562h6.713v6.701h-6.713V452.562z
		 M366.832,405.056h6.713v6.701h-6.713V405.056z M366.832,412.954h6.713v6.702h-6.713V412.954z M366.832,444.666h6.713v6.701h-6.713
		V444.666z M366.832,452.562h6.713v6.701h-6.713V452.562z M374.742,412.954h6.713v6.702h-6.713V412.954z M374.742,444.666h6.713
		v6.701h-6.713V444.666z"/>
	<path fill="#9CC6D1" d="M389.484,405.056h6.713v6.701h-6.713V405.056z M389.484,452.562h6.713v6.701h-6.713V452.562z
		 M397.396,405.056h6.713v6.701h-6.713V405.056z M397.396,452.562h6.713v6.701h-6.713V452.562z M405.306,405.056h6.713v6.701h-6.713
		V405.056z M405.306,412.954h6.713v6.702h-6.713V412.954z M405.306,420.852h6.713v6.701h-6.713V420.852z M405.306,428.75h6.713
		v6.701h-6.713V428.75z M405.306,436.767h6.713v6.701h-6.713V436.767z M405.306,444.666h6.713v6.701h-6.713V444.666z
		 M405.306,452.562h6.713v6.701h-6.713V452.562z M413.218,405.056h6.713v6.701h-6.713V405.056z M413.218,412.954h6.713v6.702h-6.713
		V412.954z M413.218,420.852h6.713v6.701h-6.713V420.852z M413.218,428.75h6.713v6.701h-6.713V428.75z M413.218,436.767h6.713v6.701
		h-6.713V436.767z M413.218,444.666h6.713v6.701h-6.713V444.666z M413.218,452.562h6.713v6.701h-6.713V452.562z M421.25,405.056
		h6.713v6.701h-6.713V405.056z M421.25,452.562h6.713v6.701h-6.713V452.562z M429.162,405.056h6.713v6.701h-6.713V405.056z
		 M429.162,452.562h6.713v6.701h-6.713V452.562z"/>
	<path fill="#9CC6D1" d="M451.816,405.056h6.713v6.701h-6.713V405.056z M451.816,412.954h6.713v6.702h-6.713V412.954z
		 M451.816,420.852h6.713v6.701h-6.713V420.852z M451.816,428.75h6.713v6.701h-6.713V428.75z M451.816,436.767h6.713v6.701h-6.713
		V436.767z M451.816,444.666h6.713v6.701h-6.713V444.666z M459.726,405.056h6.715v6.701h-6.715V405.056z M459.726,412.954h6.715
		v6.702h-6.715V412.954z M459.726,420.852h6.715v6.701h-6.715V420.852z M459.726,428.75h6.715v6.701h-6.715V428.75z
		 M459.726,436.767h6.715v6.701h-6.715V436.767z M459.726,444.666h6.715v6.701h-6.715V444.666z M459.726,452.562h6.715v6.701h-6.715
		V452.562z M467.638,452.562h6.713v6.701h-6.713V452.562z M475.55,452.562h6.711v6.701h-6.711V452.562z M483.582,452.562h6.711
		v6.701h-6.711V452.562z M491.492,405.056h6.713v6.701h-6.713V405.056z M491.492,412.954h6.713v6.702h-6.713V412.954z
		 M491.492,420.852h6.713v6.701h-6.713V420.852z M491.492,428.75h6.713v6.701h-6.713V428.75z M491.492,436.767h6.713v6.701h-6.713
		V436.767z M491.492,444.666h6.713v6.701h-6.713V444.666z M491.492,452.562h6.713v6.701h-6.713V452.562z M499.404,405.056h6.713
		v6.701h-6.713V405.056z M499.404,412.954h6.713v6.702h-6.713V412.954z M499.404,420.852h6.713v6.701h-6.713V420.852z
		 M499.404,428.75h6.713v6.701h-6.713V428.75z M499.404,436.767h6.713v6.701h-6.713V436.767z M499.404,444.666h6.713v6.701h-6.713
		V444.666z"/>
	<path fill="#9CC6D1" d="M514.146,405.056h6.713v6.701h-6.713V405.056z M514.146,412.954h6.713v6.702h-6.713V412.954z
		 M514.146,420.852h6.713v6.701h-6.713V420.852z M514.146,428.75h6.713v6.701h-6.713V428.75z M514.146,436.767h6.713v6.701h-6.713
		V436.767z M514.146,444.666h6.713v6.701h-6.713V444.666z M514.146,452.562h6.713v6.701h-6.713V452.562z M522.056,412.954h6.713
		v6.702h-6.713V412.954z M522.056,420.852h6.713v6.701h-6.713V420.852z M522.056,428.75h6.713v6.701h-6.713V428.75z
		 M522.056,436.767h6.713v6.701h-6.713V436.767z M522.056,444.666h6.713v6.701h-6.713V444.666z M522.056,452.562h6.713v6.701h-6.713
		V452.562z M529.968,420.852h6.713v6.701h-6.713V420.852z M529.968,428.75h6.713v6.701h-6.713V428.75z M537.88,428.75h6.711v6.701
		h-6.711V428.75z M537.88,436.767h6.711v6.701h-6.711V436.767z M545.912,420.852h6.711v6.701h-6.711V420.852z M545.912,428.75h6.711
		v6.701h-6.711V428.75z M553.822,412.954h6.713v6.702h-6.713V412.954z M553.822,420.852h6.713v6.701h-6.713V420.852z
		 M553.822,428.75h6.713v6.701h-6.713V428.75z M553.822,436.767h6.713v6.701h-6.713V436.767z M553.822,444.666h6.713v6.701h-6.713
		V444.666z M553.822,452.562h6.713v6.701h-6.713V452.562z M561.734,405.056h6.713v6.701h-6.713V405.056z M561.734,412.954h6.713
		v6.702h-6.713V412.954z M561.734,420.852h6.713v6.701h-6.713V420.852z M561.734,428.75h6.713v6.701h-6.713V428.75z
		 M561.734,436.767h6.713v6.701h-6.713V436.767z M561.734,444.666h6.713v6.701h-6.713V444.666z M561.734,452.562h6.713v6.701h-6.713
		V452.562z"/>
</g>
<g>
	<path fill="#FFFFFF" d="M231.255,475.419h4.04v4.033h-4.04V475.419z M236.016,475.419h4.04v4.033h-4.04V475.419z M240.777,475.419
		h4.04v4.033h-4.04V475.419z M240.777,480.171h4.04v4.033h-4.04V480.171z M240.777,484.925h4.04v4.033h-4.04V484.925z
		 M240.777,489.677h4.04v4.033h-4.04V489.677z M240.777,494.503h4.04v4.031h-4.04V494.503z M240.777,499.255h4.04v4.033h-4.04
		V499.255z M240.777,504.009h4.04v4.031h-4.04V504.009z M245.538,475.419h4.04v4.033h-4.04V475.419z M245.538,480.171h4.04v4.033
		h-4.04V480.171z M245.538,484.925h4.04v4.033h-4.04V484.925z M245.538,489.677h4.04v4.033h-4.04V489.677z M245.538,494.503h4.04
		v4.031h-4.04V494.503z M245.538,499.255h4.04v4.033h-4.04V499.255z M245.538,504.009h4.04v4.031h-4.04V504.009z M250.371,475.419
		h4.04v4.033h-4.04V475.419z M255.131,475.419h4.04v4.033h-4.04V475.419z"/>
	<path fill="#FFFFFF" d="M268.764,475.419h4.04v4.033h-4.04V475.419z M268.764,480.171h4.04v4.033h-4.04V480.171z M268.764,484.925
		h4.04v4.033h-4.04V484.925z M268.764,489.677h4.04v4.033h-4.04V489.677z M268.764,494.503h4.04v4.031h-4.04V494.503z
		 M268.764,499.255h4.04v4.033h-4.04V499.255z M268.764,504.009h4.04v4.031h-4.04V504.009z M273.525,475.419h4.04v4.033h-4.04
		V475.419z M273.525,480.171h4.04v4.033h-4.04V480.171z M273.525,484.925h4.04v4.033h-4.04V484.925z M273.525,489.677h4.04v4.033
		h-4.04V489.677z M273.525,494.503h4.04v4.031h-4.04V494.503z M273.525,499.255h4.04v4.033h-4.04V499.255z M273.525,504.009h4.04
		v4.031h-4.04V504.009z M278.286,475.419h4.04v4.033h-4.04V475.419z M278.286,489.677h4.04v4.033h-4.04V489.677z M283.047,475.419
		h4.04v4.033h-4.04V475.419z M283.047,489.677h4.04v4.033h-4.04V489.677z M283.047,494.503h4.04v4.031h-4.04V494.503z
		 M287.88,475.419h4.04v4.033h-4.04V475.419z M287.88,489.677h4.04v4.033h-4.04V489.677z M287.88,494.503h4.04v4.031h-4.04V494.503z
		 M287.88,499.255h4.04v4.033h-4.04V499.255z M292.641,475.419h4.04v4.033h-4.04V475.419z M292.641,480.171h4.04v4.033h-4.04
		V480.171z M292.641,484.925h4.04v4.033h-4.04V484.925z M292.641,489.677h4.04v4.033h-4.04V489.677z M292.641,499.255h4.04v4.033
		h-4.04V499.255z M292.641,504.009h4.04v4.031h-4.04V504.009z M297.402,480.171h4.04v4.033h-4.04V480.171z M297.402,484.925h4.04
		v4.033h-4.04V484.925z M297.402,504.009h4.04v4.031h-4.04V504.009z"/>
	<path fill="#FFFFFF" d="M306.273,484.925h4.039v4.033h-4.039V484.925z M306.273,489.677h4.039v4.033h-4.039V489.677z
		 M306.273,494.503h4.039v4.031h-4.039V494.503z M306.273,499.255h4.039v4.033h-4.039V499.255z M306.273,504.009h4.039v4.031h-4.039
		V504.009z M311.035,480.171h4.039v4.033h-4.039V480.171z M311.035,484.925h4.039v4.033h-4.039V484.925z M311.035,489.677h4.039
		v4.033h-4.039V489.677z M311.035,494.503h4.039v4.031h-4.039V494.503z M311.035,499.255h4.039v4.033h-4.039V499.255z
		 M311.035,504.009h4.039v4.031h-4.039V504.009z M315.794,475.419h4.041v4.033h-4.041V475.419z M315.794,480.171h4.041v4.033h-4.041
		V480.171z M315.794,494.503h4.041v4.031h-4.041V494.503z M320.556,475.419h4.04v4.033h-4.04V475.419z M320.556,494.503h4.04v4.031
		h-4.04V494.503z M325.389,475.419h4.04v4.033h-4.04V475.419z M325.389,480.171h4.04v4.033h-4.04V480.171z M325.389,494.503h4.04
		v4.031h-4.04V494.503z M330.15,480.171h4.039v4.033h-4.039V480.171z M330.15,484.925h4.039v4.033h-4.039V484.925z M330.15,489.677
		h4.039v4.033h-4.039V489.677z M330.15,494.503h4.039v4.031h-4.039V494.503z M330.15,499.255h4.039v4.033h-4.039V499.255z
		 M330.15,504.009h4.039v4.031h-4.039V504.009z M334.912,484.925h4.039v4.033h-4.039V484.925z M334.912,489.677h4.039v4.033h-4.039
		V489.677z M334.912,494.503h4.039v4.031h-4.039V494.503z M334.912,499.255h4.039v4.033h-4.039V499.255z M334.912,504.009h4.039
		v4.031h-4.039V504.009z"/>
	<path fill="#FFFFFF" d="M343.783,480.171h4.038v4.033h-4.038V480.171z M343.783,484.925h4.038v4.033h-4.038V484.925z
		 M343.783,489.677h4.038v4.033h-4.038V489.677z M343.783,494.503h4.038v4.031h-4.038V494.503z M343.783,499.255h4.038v4.033h-4.038
		V499.255z M348.542,475.419h4.041v4.033h-4.041V475.419z M348.542,480.171h4.041v4.033h-4.041V480.171z M348.542,484.925h4.041
		v4.033h-4.041V484.925z M348.542,489.677h4.041v4.033h-4.041V489.677z M348.542,494.503h4.041v4.031h-4.041V494.503z
		 M348.542,499.255h4.041v4.033h-4.041V499.255z M348.542,504.009h4.041v4.031h-4.041V504.009z M353.304,475.419h4.039v4.033h-4.039
		V475.419z M353.304,504.009h4.039v4.031h-4.039V504.009z M358.064,475.419h4.04v4.033h-4.04V475.419z M358.064,504.009h4.04v4.031
		h-4.04V504.009z M362.897,475.419h4.04v4.033h-4.04V475.419z M362.897,504.009h4.04v4.031h-4.04V504.009z M367.66,475.419h4.039
		v4.033h-4.039V475.419z M367.66,480.171h4.039v4.033h-4.039V480.171z M367.66,499.255h4.039v4.033h-4.039V499.255z M367.66,504.009
		h4.039v4.031h-4.039V504.009z M372.419,480.171h4.039v4.033h-4.039V480.171z M372.419,499.255h4.039v4.033h-4.039V499.255z"/>
	<path fill="#FFFFFF" d="M381.292,475.419h4.039v4.033h-4.039V475.419z M381.292,480.171h4.039v4.033h-4.039V480.171z
		 M381.292,484.925h4.039v4.033h-4.039V484.925z M381.292,489.677h4.039v4.033h-4.039V489.677z M381.292,494.503h4.039v4.031h-4.039
		V494.503z M381.292,499.255h4.039v4.033h-4.039V499.255z M381.292,504.009h4.039v4.031h-4.039V504.009z M386.053,475.419h4.04
		v4.033h-4.04V475.419z M386.053,480.171h4.04v4.033h-4.04V480.171z M386.053,484.925h4.04v4.033h-4.04V484.925z M386.053,489.677
		h4.04v4.033h-4.04V489.677z M386.053,494.503h4.04v4.031h-4.04V494.503z M386.053,499.255h4.04v4.033h-4.04V499.255z
		 M386.053,504.009h4.04v4.031h-4.04V504.009z M390.813,489.677h4.04v4.033h-4.04V489.677z M390.813,494.503h4.04v4.031h-4.04
		V494.503z M395.574,484.925h4.041v4.033h-4.041V484.925z M395.574,489.677h4.041v4.033h-4.041V489.677z M395.574,494.503h4.041
		v4.031h-4.041V494.503z M395.574,499.255h4.041v4.033h-4.041V499.255z M400.408,480.171h4.039v4.033h-4.039V480.171z
		 M400.408,484.925h4.039v4.033h-4.039V484.925z M400.408,494.503h4.039v4.031h-4.039V494.503z M400.408,499.255h4.039v4.033h-4.039
		V499.255z M405.169,475.419h4.039v4.033h-4.039V475.419z M405.169,480.171h4.039v4.033h-4.039V480.171z M405.169,499.255h4.039
		v4.033h-4.039V499.255z M405.169,504.009h4.039v4.031h-4.039V504.009z M409.929,475.419h4.039v4.033h-4.039V475.419z
		 M409.929,504.009h4.039v4.031h-4.039V504.009z"/>
	<path fill="#FFFFFF" d="M418.8,475.419h4.039v4.033H418.8V475.419z M418.8,480.171h4.039v4.033H418.8V480.171z M418.8,484.925
		h4.039v4.033H418.8V484.925z M418.8,489.677h4.039v4.033H418.8V489.677z M418.8,494.503h4.039v4.031H418.8V494.503z M418.8,499.255
		h4.039v4.033H418.8V499.255z M418.8,504.009h4.039v4.031H418.8V504.009z M423.562,475.419h4.039v4.033h-4.039V475.419z
		 M423.562,480.171h4.039v4.033h-4.039V480.171z M423.562,484.925h4.039v4.033h-4.039V484.925z M423.562,489.677h4.039v4.033h-4.039
		V489.677z M423.562,494.503h4.039v4.031h-4.039V494.503z M423.562,499.255h4.039v4.033h-4.039V499.255z M423.562,504.009h4.039
		v4.031h-4.039V504.009z M428.322,475.419h4.041v4.033h-4.041V475.419z M428.322,489.677h4.041v4.033h-4.041V489.677z
		 M428.322,504.009h4.041v4.031h-4.041V504.009z M433.083,475.419h4.039v4.033h-4.039V475.419z M433.083,489.677h4.039v4.033h-4.039
		V489.677z M433.083,504.009h4.039v4.031h-4.039V504.009z M437.916,475.419h4.041v4.033h-4.041V475.419z M437.916,489.677h4.041
		v4.033h-4.041V489.677z M437.916,504.009h4.041v4.031h-4.041V504.009z M442.677,475.419h4.039v4.033h-4.039V475.419z
		 M442.677,489.677h4.039v4.033h-4.039V489.677z M442.677,504.009h4.039v4.031h-4.039V504.009z M447.437,475.419h4.039v4.033h-4.039
		V475.419z M447.437,504.009h4.039v4.031h-4.039V504.009z"/>
	<path fill="#FFFFFF" d="M456.31,475.419h4.039v4.033h-4.039V475.419z M456.31,480.171h4.039v4.033h-4.039V480.171z M456.31,484.925
		h4.039v4.033h-4.039V484.925z M456.31,489.677h4.039v4.033h-4.039V489.677z M456.31,494.503h4.039v4.031h-4.039V494.503z
		 M456.31,499.255h4.039v4.033h-4.039V499.255z M456.31,504.009h4.039v4.031h-4.039V504.009z M461.072,475.419h4.039v4.033h-4.039
		V475.419z M461.072,480.171h4.039v4.033h-4.039V480.171z M461.072,484.925h4.039v4.033h-4.039V484.925z M461.072,489.677h4.039
		v4.033h-4.039V489.677z M461.072,494.503h4.039v4.031h-4.039V494.503z M461.072,499.255h4.039v4.033h-4.039V499.255z
		 M461.072,504.009h4.039v4.031h-4.039V504.009z M465.832,475.419h4.041v4.033h-4.041V475.419z M465.832,489.677h4.041v4.033h-4.041
		V489.677z M470.593,475.419h4.039v4.033h-4.039V475.419z M470.593,489.677h4.039v4.033h-4.039V489.677z M470.593,494.503h4.039
		v4.031h-4.039V494.503z M475.425,475.419h4.041v4.033h-4.041V475.419z M475.425,489.677h4.041v4.033h-4.041V489.677z
		 M475.425,494.503h4.041v4.031h-4.041V494.503z M475.425,499.255h4.041v4.033h-4.041V499.255z M480.187,475.419h4.039v4.033h-4.039
		V475.419z M480.187,480.171h4.039v4.033h-4.039V480.171z M480.187,484.925h4.039v4.033h-4.039V484.925z M480.187,489.677h4.039
		v4.033h-4.039V489.677z M480.187,499.255h4.039v4.033h-4.039V499.255z M480.187,504.009h4.039v4.031h-4.039V504.009z
		 M484.949,480.171h4.039v4.033h-4.039V480.171z M484.949,484.925h4.039v4.033h-4.039V484.925z M484.949,504.009h4.039v4.031h-4.039
		V504.009z"/>
</g>
</svg>
